<svg xmlns="http://www.w3.org/2000/svg" version="1.1" xmlns:xlink="http://www.w3.org/1999/xlink" xmlns:svgjs="http://svgjs.dev/svgjs" width="1500" height="1500" viewBox="0 0 1500 1500"><rect width="1500" height="1500" fill="#000000"></rect><g transform="matrix(0.6666666666666666,0,0,0.6666666666666666,249.39393939393938,438.5856950067477)"><svg viewBox="0 0 396 247" data-background-color="#ffffff" preserveAspectRatio="xMidYMid meet" height="935" width="1500" xmlns="http://www.w3.org/2000/svg" xmlns:xlink="http://www.w3.org/1999/xlink"><g id="tight-bounds" transform="matrix(1,0,0,1,0.2400000000000091,-0.09999999999999432)"><svg viewBox="0 0 395.52 247.2" height="247.2" width="395.52"><g><svg></svg></g><g><svg viewBox="0 0 395.52 247.2" height="247.2" width="395.52"><g transform="matrix(1,0,0,1,127.4706551475237,47.215199999999996)"><svg viewBox="0 0 140.57868970495258 152.7696" height="152.7696" width="140.57868970495258"><g><svg viewBox="0 0 191.95079032388574 208.5966622609003" height="152.7696" width="140.57868970495258"><g><svg viewBox="0 0 191.95079032388574 208.5966622609003" height="208.5966622609003" width="191.95079032388574"><g id="textblocktransform"><svg viewBox="0 0 191.95079032388574 208.5966622609003" height="208.5966622609003" width="191.95079032388574" id="textblock"><g><svg viewBox="0 0 191.95079032388574 151.825483872" height="151.825483872" width="191.95079032388574"><g transform="matrix(1,0,0,1,0,0)"><svg width="191.95079032388574" viewBox="1.7999999999999998 -28 35.400000000000006 28" height="151.825483872" data-palette-color="#000000"><path d="M17.2-26Q17.2-24.85 17-24L17-24 14-24Q14.2-23.2 14.2-22L14.2-22Q14.2-20.85 14-20L14-20Q14.2-19.2 14.2-18L14.2-18Q14.2-16.85 14-16L14-16Q14.2-15.2 14.2-14L14.2-14Q14.2-12.85 14-12L14-12Q14.2-11.2 14.2-10L14.2-10Q14.2-8.85 14-8L14-8Q14.2-7.2 14.2-6L14.2-6Q14.2-4.85 14-4L14-4 12-4Q12.2-3.2 12.2-2L12.2-2Q12.2-0.85 12 0L12 0 4 0Q3.8-0.85 3.8-2L3.8-2Q3.8-3.2 4-4L4-4 2-4Q1.8-4.85 1.8-6L1.8-6Q1.8-7.2 2-8L2-8 6-8Q6.2-7.2 6.2-6L6.2-6Q6.2-4.85 6-4L6-4 10-4Q9.8-4.85 9.8-6L9.8-6Q9.8-7.2 10-8L10-8Q9.8-8.85 9.8-10L9.8-10Q9.8-11.2 10-12L10-12Q9.8-12.85 9.8-14L9.8-14Q9.8-15.2 10-16L10-16Q9.8-16.85 9.8-18L9.8-18Q9.8-19.2 10-20L10-20Q9.8-20.85 9.8-22L9.8-22Q9.8-23.2 10-24L10-24 7-24Q6.8-24.85 6.8-26L6.8-26Q6.8-27.2 7-28L7-28 17-28Q17.2-27.2 17.2-26L17.2-26ZM37.2-26Q37.2-24.85 37-24L37-24 34-24Q34.2-23.2 34.2-22L34.2-22Q34.2-20.85 34-20L34-20Q34.2-19.2 34.2-18L34.2-18Q34.2-16.85 34-16L34-16Q34.2-15.2 34.2-14L34.2-14Q34.2-12.85 34-12L34-12Q34.2-11.2 34.2-10L34.2-10Q34.2-8.85 34-8L34-8Q34.2-7.2 34.2-6L34.2-6Q34.2-4.85 34-4L34-4 32-4Q32.2-3.2 32.2-2L32.2-2Q32.2-0.85 32 0L32 0 24 0Q23.8-0.85 23.8-2L23.8-2Q23.8-3.2 24-4L24-4 22-4Q21.8-4.85 21.8-6L21.8-6Q21.8-7.2 22-8L22-8 26-8Q26.2-7.2 26.2-6L26.2-6Q26.2-4.85 26-4L26-4 30-4Q29.8-4.85 29.8-6L29.8-6Q29.8-7.2 30-8L30-8Q29.8-8.85 29.8-10L29.8-10Q29.8-11.2 30-12L30-12Q29.8-12.85 29.8-14L29.8-14Q29.8-15.2 30-16L30-16Q29.8-16.85 29.8-18L29.8-18Q29.8-19.2 30-20L30-20Q29.8-20.85 29.8-22L29.8-22Q29.8-23.2 30-24L30-24 27-24Q26.8-24.85 26.8-26L26.8-26Q26.8-27.2 27-28L27-28 37-28Q37.2-27.2 37.2-26L37.2-26Z" opacity="1" transform="matrix(1,0,0,1,0,0)" fill="#ffffff" class="wordmark-text-0" data-fill-palette-color="primary" id="text-0"></path></svg></g></svg></g><g transform="matrix(1,0,0,1,0,187.66783680256628)"><svg viewBox="0 0 129.47080807346092 20.928825458334003" height="20.928825458334003" width="129.47080807346092"><g transform="matrix(1,0,0,1,0,0)"><svg width="129.47080807346092" viewBox="-0.45 -39.65 292.27 47.25" height="20.928825458334003" data-palette-color="#000000"><path d="M10.2-34.55L10.2-5Q10.2 0.4 7.85 3.18 5.5 5.95 1.25 7.6L1.25 7.6-0.45 3.1Q1.4 2.2 2.3 1.18 3.2 0.15 3.5-1.3 3.8-2.75 3.8-5.25L3.8-5.25 3.8-34.55 10.2-34.55ZM25.3-27.15Q30.3-27.15 33.07-23.65 35.85-20.15 35.85-13.25L35.85-13.25Q35.85-6.65 33.05-2.95 30.25 0.75 25.3 0.75L25.3 0.75Q20.35 0.75 17.55-2.88 14.75-6.5 14.75-13.25L14.75-13.25Q14.75-19.95 17.55-23.55 20.35-27.15 25.3-27.15L25.3-27.15ZM25.3-22.5Q23.15-22.5 22.15-20.38 21.15-18.25 21.15-13.25L21.15-13.25Q21.15-8.2 22.15-6.08 23.15-3.95 25.3-3.95L25.3-3.95Q27.45-3.95 28.45-6.08 29.45-8.2 29.45-13.25L29.45-13.25Q29.45-18.3 28.45-20.4 27.45-22.5 25.3-22.5L25.3-22.5ZM52.75-27.15Q55.59-27.15 57.25-25.1 58.9-23.05 58.9-19.6L58.9-19.6 58.9 0 52.75 0 52.75-18.9Q52.75-20.8 52.22-21.63 51.7-22.45 50.7-22.45L50.7-22.45Q48.59-22.45 46.55-18.5L46.55-18.5 46.55 0 40.4 0 40.4-37 46.55-37.65 46.55-23.3Q47.8-25.25 49.27-26.2 50.75-27.15 52.75-27.15L52.75-27.15ZM76.79-27.15Q79.64-27.15 81.29-25.1 82.94-23.05 82.94-19.6L82.94-19.6 82.94 0 76.79 0 76.79-18.9Q76.79-20.8 76.27-21.63 75.74-22.45 74.74-22.45L74.74-22.45Q72.64-22.45 70.59-18.5L70.59-18.5 70.59 0 64.44 0 64.44-26.45 69.79-26.45 70.24-23Q71.59-25.1 73.12-26.13 74.64-27.15 76.79-27.15L76.79-27.15ZM98.49-34.55L115.64-34.55 114.99-29.8 104.84-29.8 104.84-19.9 113.69-19.9 113.69-15.2 104.84-15.2 104.84-4.8 115.64-4.8 115.64 0 98.49 0 98.49-34.55ZM131.64-27.1Q132.79-27.1 133.69-26.75L133.69-26.75 132.69-20.85Q131.69-21.1 130.84-21.1L130.84-21.1Q128.94-21.1 127.84-19.45 126.74-17.8 126.14-14.55L126.14-14.55 126.14 0 119.99 0 119.99-26.45 125.34-26.45 125.79-21.85Q127.64-27.1 131.64-27.1L131.64-27.1ZM136.53-26.45L142.68-26.45 142.68 0 136.53 0 136.53-26.45ZM139.58-39.65Q141.23-39.65 142.26-38.6 143.28-37.55 143.28-35.9L143.28-35.9Q143.28-34.3 142.26-33.25 141.23-32.2 139.58-32.2L139.58-32.2Q137.93-32.2 136.91-33.25 135.88-34.3 135.88-35.9L135.88-35.9Q135.88-37.55 136.91-38.6 137.93-39.65 139.58-39.65L139.58-39.65ZM157.88-27.15Q160.03-27.15 161.78-26.43 163.53-25.7 165.13-24.15L165.13-24.15 162.48-20.65Q161.38-21.55 160.41-21.98 159.43-22.4 158.28-22.4L158.28-22.4Q156.03-22.4 154.88-20.28 153.73-18.15 153.73-13.1L153.73-13.1Q153.73-8.2 154.91-6.2 156.08-4.2 158.28-4.2L158.28-4.2Q159.38-4.2 160.28-4.6 161.18-5 162.38-5.85L162.38-5.85 165.13-2.3Q161.93 0.75 157.98 0.75L157.98 0.75Q152.88 0.75 150.06-2.73 147.23-6.2 147.23-13L147.23-13Q147.23-17.4 148.53-20.6 149.83-23.8 152.26-25.48 154.68-27.15 157.88-27.15L157.88-27.15ZM185.38-34.55L185.38-5Q185.38 0.4 183.03 3.18 180.68 5.95 176.43 7.6L176.43 7.6 174.73 3.1Q176.58 2.2 177.48 1.18 178.38 0.15 178.68-1.3 178.98-2.75 178.98-5.25L178.98-5.25 178.98-34.55 185.38-34.55ZM200.47-27.15Q205.47-27.15 208.25-23.65 211.02-20.15 211.02-13.25L211.02-13.25Q211.02-6.65 208.22-2.95 205.42 0.75 200.47 0.75L200.47 0.75Q195.52 0.75 192.72-2.88 189.92-6.5 189.92-13.25L189.92-13.25Q189.92-19.95 192.72-23.55 195.52-27.15 200.47-27.15L200.47-27.15ZM200.47-22.5Q198.32-22.5 197.32-20.38 196.32-18.25 196.32-13.25L196.32-13.25Q196.32-8.2 197.32-6.08 198.32-3.95 200.47-3.95L200.47-3.95Q202.62-3.95 203.62-6.08 204.62-8.2 204.62-13.25L204.62-13.25Q204.62-18.3 203.62-20.4 202.62-22.5 200.47-22.5L200.47-22.5ZM239.22-27.15Q241.87-27.15 243.47-25.1 245.07-23.05 245.07-19.6L245.07-19.6 245.07 0 239.02 0 239.02-18.95Q239.02-20.85 238.52-21.68 238.02-22.5 237.07-22.5L237.07-22.5Q235.12-22.5 233.32-18.8L233.32-18.8 233.32 0 227.32 0 227.32-18.95Q227.32-22.5 225.42-22.5L225.42-22.5Q223.37-22.5 221.62-18.8L221.62-18.8 221.62 0 215.57 0 215.57-26.45 220.92-26.45 221.32-23.05Q223.92-27.15 227.57-27.15L227.57-27.15Q229.42-27.15 230.77-26 232.12-24.85 232.82-22.75L232.82-22.75Q235.47-27.15 239.22-27.15L239.22-27.15ZM259.97-27.15Q264.97-27.15 267.74-23.65 270.52-20.15 270.52-13.25L270.52-13.25Q270.52-6.65 267.72-2.95 264.92 0.75 259.97 0.75L259.97 0.75Q255.02 0.75 252.22-2.88 249.42-6.5 249.42-13.25L249.42-13.25Q249.42-19.95 252.22-23.55 255.02-27.15 259.97-27.15L259.97-27.15ZM259.97-22.5Q257.82-22.5 256.82-20.38 255.82-18.25 255.82-13.25L255.82-13.25Q255.82-8.2 256.82-6.08 257.82-3.95 259.97-3.95L259.97-3.95Q262.12-3.95 263.12-6.08 264.12-8.2 264.12-13.25L264.12-13.25Q264.12-18.3 263.12-20.4 262.12-22.5 259.97-22.5L259.97-22.5ZM284.57-27.15Q286.72-27.15 288.47-26.43 290.22-25.7 291.82-24.15L291.82-24.15 289.17-20.65Q288.07-21.55 287.09-21.98 286.12-22.4 284.97-22.4L284.97-22.4Q282.72-22.4 281.57-20.28 280.42-18.15 280.42-13.1L280.42-13.1Q280.42-8.2 281.59-6.2 282.77-4.2 284.97-4.2L284.97-4.2Q286.07-4.2 286.97-4.6 287.87-5 289.07-5.85L289.07-5.85 291.82-2.3Q288.62 0.75 284.67 0.75L284.67 0.75Q279.57 0.75 276.74-2.73 273.92-6.2 273.92-13L273.92-13Q273.92-17.4 275.22-20.6 276.52-23.8 278.94-25.48 281.37-27.15 284.57-27.15L284.57-27.15Z" opacity="1" transform="matrix(1,0,0,1,0,0)" fill="#ffffff" class="slogan-text-1" data-fill-palette-color="secondary" id="text-1"></path></svg></g></svg></g></svg></g></svg></g></svg></g></svg></g><path d="M306.022 41.215L306.022 0 58.822 0 58.822 247.2 306.022 247.2 306.022 205.985 295.995 205.985 295.995 237.173 68.85 237.173 68.85 10.027 295.995 10.027 295.995 41.215Z" fill="#ffffff" stroke="transparent" data-fill-palette-color="tertiary"></path></svg></g><defs></defs></svg><rect width="395.52" height="247.2" fill="none" stroke="none" visibility="hidden"></rect></g></svg></g></svg>